<?xml version="1.0" encoding="utf-8"?>
<!-- Generator: Adobe Illustrator 22.1.0, SVG Export Plug-In . SVG Version: 6.00 Build 0)  -->
<svg version="1.1" id="Layer_1" xmlns="http://www.w3.org/2000/svg" xmlns:xlink="http://www.w3.org/1999/xlink" x="0px" y="0px"
	 viewBox="0 0 100 100" style="enable-background:new 0 0 100 100;" xml:space="preserve">
<path d="M50,29.7h41.6l-9.3,58.5H59.3L50,29.7z M82.3,20.3v-8.5h-5.1v8.5H50v6.7h41.6v-6.7C91.6,20.3,82.3,20.3,82.3,20.3z
	 M47.3,60.2H11.1c-1.5,0-2.7,1.2-2.7,2.8V66c0,1.5,1.2,2.7,2.7,2.7h36.2c1.5,0,2.7-1.2,2.7-2.7v-3.1C50,61.4,48.8,60.2,47.3,60.2z
	 M29.2,44.5c-11.5,0-20.8,5.9-20.8,13.2H50C50,50.4,40.7,44.5,29.2,44.5z M29.2,84.4c11.5,0,20.8-5.9,20.8-13.1H8.4
	C8.4,78.5,17.7,84.4,29.2,84.4z"/>
</svg>
