<?xml version="1.0" encoding="utf-8"?>
<!-- Generator: Adobe Illustrator 22.1.0, SVG Export Plug-In . SVG Version: 6.00 Build 0)  -->
<svg version="1.1" id="Layer_1" xmlns="http://www.w3.org/2000/svg" xmlns:xlink="http://www.w3.org/1999/xlink" x="0px" y="0px"
	 viewBox="0 0 107 80" style="enable-background:new 0 0 107 80;" xml:space="preserve">
<style type="text/css">
	.st0{enable-background:new    ;}
	.st1{fill:#ffffff;}
</style>
<title>logo</title>
<desc>Created with Sketch.</desc>
<g id="Web-v.1">
	<g id="_x23_2-To-go-Menu" transform="translate(-79.000000, -64.000000)">
		<g id="logo" transform="translate(76.000000, 54.000000)">
			<g class="st0">
				<path class="st1" d="M4.1,67V17.7h8.6l23,32.1H36V17.7h9.9V67h-8.5L14.3,34.7H14V67H4.1z"/>
				<path class="st1" d="M78.4,52.5c0.1,4,2.7,6.6,6.6,6.6c4.3,0,6.6-2.7,6.6-7.6V17.7h10.3v33.9C101.9,62,95.6,68,85.1,68
					C75,68,68.4,61.9,68.4,52.5H78.4z"/>
			</g>
			<g class="st0">
				<path class="st1" d="M77.9,29h-7.5c-0.2-0.2-0.5-0.5-0.8-0.9s-0.6-0.7-0.8-1c-0.9,0.8-1.8,1.4-2.7,1.8c-0.9,0.4-1.8,0.5-2.9,0.5
					c-1.6,0-2.9-0.4-3.9-1.3c-1-0.9-1.5-2-1.5-3.3c0-0.7,0.1-1.3,0.3-1.8c0.2-0.5,0.5-1,0.9-1.5c0.4-0.5,0.9-0.9,1.4-1.3
					s1.2-0.7,1.9-1.1c-0.8-1-1.3-1.8-1.6-2.5c-0.3-0.7-0.5-1.4-0.5-2.1c0-1.2,0.5-2.2,1.5-3s2.2-1.2,3.6-1.2c1.3,0,2.4,0.3,3.2,0.9
					c0.8,0.6,1.2,1.5,1.2,2.5c0,0.9-0.2,1.7-0.7,2.4c-0.5,0.7-1.3,1.4-2.5,2.1c0.9,1.2,1.6,2.1,2.1,2.7c0.5,0.6,1.2,1.4,2,2.4
					c0.5-0.8,0.9-1.5,1.2-2.2c0.3-0.7,0.4-1.2,0.4-1.7c0-0.3-0.2-0.5-0.6-0.6c-0.4-0.2-0.9-0.3-1.6-0.4v-1h7.1v1
					c-0.8,0.1-1.3,0.2-1.7,0.3c-0.4,0.1-0.7,0.4-1.1,0.7c-0.2,0.2-0.3,0.4-0.6,0.8c-0.2,0.4-0.4,0.8-0.6,1.1
					c-0.2,0.4-0.5,0.9-0.8,1.4c-0.3,0.5-0.6,1-1,1.5c0.8,0.9,1.4,1.6,1.9,2.1c0.5,0.5,0.9,0.8,1.2,0.9c0.4,0.2,0.8,0.3,1.4,0.5
					c0.6,0.1,1.1,0.2,1.7,0.2V29z M68.1,26.3c-0.7-0.9-1.5-1.9-2.5-3c-0.9-1.1-1.8-2.2-2.6-3.2c-0.4,0.4-0.8,1-1,1.5
					c-0.2,0.6-0.3,1.2-0.3,1.8c0,1.1,0.4,2,1.1,2.8c0.7,0.7,1.6,1.1,2.7,1.1c0.5,0,1-0.1,1.3-0.2C67.3,26.9,67.7,26.6,68.1,26.3z
					 M68.1,14.1c0-0.7-0.2-1.3-0.5-1.8c-0.4-0.4-0.8-0.6-1.4-0.6c-0.6,0-1,0.2-1.3,0.5s-0.5,0.8-0.5,1.4c0,0.5,0.2,1,0.5,1.7
					c0.3,0.6,0.8,1.4,1.4,2.3c0.6-0.4,1.1-1,1.4-1.6C67.9,15.4,68.1,14.8,68.1,14.1z"/>
			</g>
			<g class="st0">
				<path class="st1" d="M9.9,85l-0.6-6.1l-2,4.3l-2-4.3L4.7,85H3.6l0.9-8.4h0.9l1.9,4.3l1.9-4.3h0.9l0.9,8.4H9.9z"/>
				<path class="st1" d="M12.4,76.6h1v1.2h-1V76.6z M12.4,79.1h1V85h-1V79.1z"/>
				<path class="st1" d="M19.7,76v9h-0.9l-0.1-0.5c-0.2,0.2-0.4,0.4-0.7,0.5c-0.3,0.1-0.5,0.2-0.8,0.2c-0.5,0-0.9-0.1-1.2-0.4
					c-0.4-0.3-0.6-0.6-0.9-1.1c-0.2-0.5-0.3-1-0.3-1.5c0-0.6,0.1-1.1,0.3-1.5c0.2-0.5,0.5-0.8,0.8-1.1c0.4-0.3,0.8-0.4,1.3-0.4
					c0.6,0,1.1,0.2,1.5,0.6V76H19.7z M18.3,83.7c0.3-0.3,0.4-0.9,0.4-1.6c0-0.7-0.1-1.2-0.4-1.6c-0.3-0.4-0.6-0.5-1.1-0.5
					c-0.3,0-0.5,0.1-0.7,0.3c-0.2,0.2-0.4,0.4-0.5,0.8c-0.1,0.3-0.2,0.7-0.2,1.1c0,0.4,0.1,0.7,0.2,1.1s0.3,0.6,0.5,0.8
					c0.2,0.2,0.5,0.3,0.7,0.3C17.7,84.2,18.1,84,18.3,83.7z"/>
				<path class="st1" d="M25.9,76v9H25l-0.1-0.5c-0.2,0.2-0.4,0.4-0.7,0.5c-0.3,0.1-0.5,0.2-0.8,0.2c-0.5,0-0.9-0.1-1.2-0.4
					c-0.4-0.3-0.6-0.6-0.9-1.1c-0.2-0.5-0.3-1-0.3-1.5c0-0.6,0.1-1.1,0.3-1.5c0.2-0.5,0.5-0.8,0.8-1.1c0.4-0.3,0.8-0.4,1.3-0.4
					c0.6,0,1.1,0.2,1.5,0.6V76H25.9z M24.6,83.7c0.3-0.3,0.4-0.9,0.4-1.6c0-0.7-0.1-1.2-0.4-1.6c-0.3-0.4-0.6-0.5-1.1-0.5
					c-0.3,0-0.5,0.1-0.7,0.3c-0.2,0.2-0.4,0.4-0.5,0.8c-0.1,0.3-0.2,0.7-0.2,1.1c0,0.4,0.1,0.7,0.2,1.1s0.3,0.6,0.5,0.8
					c0.2,0.2,0.5,0.3,0.7,0.3C23.9,84.2,24.3,84,24.6,83.7z"/>
				<path class="st1" d="M27.8,84.7c-0.2-0.3-0.3-0.6-0.3-1V76h1v7.1c0,0.4,0,0.6,0.1,0.8c0,0.2,0.1,0.3,0.2,0.3
					c0.1,0.1,0.3,0.1,0.5,0.1l-0.1,0.9h-0.4C28.4,85.1,28.1,85,27.8,84.7z"/>
				<path class="st1" d="M31.4,84.7c-0.4-0.3-0.7-0.7-0.9-1.1s-0.3-1-0.3-1.6c0-0.6,0.1-1.1,0.3-1.5c0.2-0.5,0.5-0.8,0.9-1.1
					c0.4-0.3,0.8-0.4,1.3-0.4c0.7,0,1.2,0.2,1.6,0.7c0.4,0.4,0.6,1,0.6,1.8c0,0.1,0,0.3,0,0.6h-3.6c0,0.7,0.2,1.2,0.5,1.6
					c0.3,0.4,0.7,0.5,1.3,0.5c0.2,0,0.5,0,0.8-0.1c0.3-0.1,0.5-0.1,0.7-0.3l0.1,0.9c-0.4,0.2-1,0.4-1.7,0.4
					C32.4,85.1,31.9,85,31.4,84.7z M33.8,81.3c0-0.4-0.1-0.7-0.3-1C33.3,80.1,33,80,32.7,80c-0.4,0-0.7,0.1-0.9,0.3
					c-0.2,0.2-0.4,0.6-0.5,1H33.8z"/>
				<path class="st1" d="M38.8,76.6h4.5v1h-3.4v2.5h2.7v1h-2.7V84h3.5v1h-4.6V76.6z"/>
				<path class="st1" d="M44.8,84.6c-0.3-0.3-0.4-0.7-0.4-1.2c0-0.7,0.3-1.3,0.9-1.6s1.3-0.5,2.1-0.5c0-0.5-0.1-0.9-0.2-1.1
					s-0.4-0.3-0.8-0.3c-0.5,0-0.9,0.2-1.4,0.5l-0.1-0.9c0.5-0.4,1.1-0.6,1.8-0.6c0.6,0,1.1,0.2,1.4,0.5c0.3,0.4,0.5,1,0.5,1.8V83
					c0,0.5,0,0.8,0.1,1c0.1,0.2,0.2,0.3,0.4,0.3h0.1l-0.1,0.9h-0.2c-0.4,0-0.6-0.1-0.8-0.2s-0.3-0.4-0.4-0.7
					c-0.2,0.3-0.4,0.5-0.7,0.6c-0.3,0.2-0.6,0.2-0.9,0.2C45.4,85.1,45.1,85,44.8,84.6z M46.8,84c0.2-0.1,0.4-0.3,0.5-0.6v-1.4
					c-0.6,0-1.1,0.2-1.4,0.4c-0.3,0.2-0.5,0.5-0.5,0.9c0,0.6,0.3,0.9,0.8,0.9C46.4,84.3,46.6,84.2,46.8,84z"/>
				<path class="st1" d="M50,84.6l0.1-1.1c0.5,0.4,1,0.6,1.6,0.6c0.3,0,0.5-0.1,0.7-0.2s0.2-0.3,0.2-0.5c0-0.2,0-0.3-0.1-0.4
					s-0.2-0.2-0.4-0.3c-0.2-0.1-0.4-0.2-0.8-0.4c-0.4-0.2-0.7-0.4-0.9-0.7c-0.2-0.3-0.3-0.6-0.3-1c0-0.5,0.2-0.9,0.5-1.2
					s0.8-0.5,1.4-0.5c0.6,0,1.1,0.1,1.5,0.4l-0.1,1c-0.2-0.1-0.4-0.2-0.6-0.3s-0.4-0.1-0.7-0.1c-0.3,0-0.5,0.1-0.7,0.2
					c-0.2,0.1-0.2,0.3-0.2,0.5s0.1,0.4,0.2,0.5s0.4,0.3,0.8,0.4c0.6,0.3,1,0.5,1.2,0.8s0.3,0.6,0.3,1c0,0.6-0.2,1-0.5,1.3
					c-0.3,0.3-0.8,0.5-1.4,0.5C51.1,85.1,50.5,85,50,84.6z"/>
				<path class="st1" d="M55.5,84.7c-0.2-0.3-0.3-0.6-0.3-1v-3.8h-0.8l0.1-0.8h0.7v-1.5l1-0.1v1.6h1.3v0.8h-1.3v3.3
					c0,0.4,0.1,0.6,0.2,0.8c0.1,0.1,0.4,0.2,0.7,0.2h0.4l-0.1,0.9h-0.9C56.1,85.1,55.8,85,55.5,84.7z"/>
				<path class="st1" d="M59.7,84.7c-0.4-0.3-0.7-0.7-0.9-1.1s-0.3-1-0.3-1.6c0-0.6,0.1-1.1,0.3-1.5c0.2-0.5,0.5-0.8,0.9-1.1
					c0.4-0.3,0.8-0.4,1.3-0.4c0.7,0,1.2,0.2,1.6,0.7c0.4,0.4,0.6,1,0.6,1.8c0,0.1,0,0.3,0,0.6h-3.6c0,0.7,0.2,1.2,0.5,1.6
					c0.3,0.4,0.7,0.5,1.3,0.5c0.2,0,0.5,0,0.8-0.1c0.3-0.1,0.5-0.1,0.7-0.3l0.1,0.9c-0.4,0.2-1,0.4-1.7,0.4
					C60.6,85.1,60.1,85,59.7,84.7z M62,81.3c0-0.4-0.1-0.7-0.3-1c-0.2-0.3-0.5-0.4-0.8-0.4c-0.4,0-0.7,0.1-0.9,0.3
					c-0.2,0.2-0.4,0.6-0.5,1H62z"/>
				<path class="st1" d="M64.3,79.1h0.9l0.1,1c0.3-0.4,0.5-0.7,0.8-0.8c0.2-0.2,0.5-0.3,0.8-0.3c0.1,0,0.2,0,0.3,0L67,80.2
					c-0.1,0-0.2,0-0.4,0c-0.3,0-0.5,0.1-0.7,0.2c-0.2,0.1-0.4,0.3-0.5,0.5V85h-1V79.1z"/>
				<path class="st1" d="M72.1,79.7c0.3,0.5,0.5,1.1,0.5,1.9V85h-1v-3.2c0-0.6-0.1-1.1-0.3-1.4c-0.2-0.3-0.4-0.5-0.8-0.5
					c-0.3,0-0.5,0.1-0.7,0.2c-0.2,0.1-0.4,0.4-0.6,0.6V85h-1v-5.9H69l0.1,0.7c0.2-0.3,0.4-0.5,0.7-0.6c0.3-0.2,0.6-0.2,0.9-0.2
					C71.3,79,71.7,79.2,72.1,79.7z"/>
				<path class="st1" d="M78.2,84.6c-0.6-0.4-1-0.9-1.3-1.5c-0.3-0.7-0.5-1.4-0.5-2.3c0-0.9,0.2-1.6,0.5-2.3
					c0.3-0.7,0.8-1.2,1.3-1.5c0.6-0.4,1.2-0.5,2-0.5c0.6,0,1.2,0.1,1.8,0.4l-0.1,1c-0.5-0.3-1-0.4-1.5-0.4c-0.6,0-1.1,0.1-1.5,0.4
					s-0.7,0.7-1,1.2c-0.2,0.5-0.3,1.1-0.3,1.7s0.1,1.2,0.3,1.7c0.2,0.5,0.5,0.9,1,1.2c0.4,0.3,0.9,0.4,1.5,0.4c0.5,0,1-0.1,1.5-0.4
					l0.1,1c-0.5,0.2-1.1,0.3-1.8,0.3C79.4,85.2,78.8,85,78.2,84.6z"/>
				<path class="st1" d="M87.4,79.1V85h-0.9l-0.1-0.7c-0.2,0.3-0.4,0.5-0.6,0.6c-0.3,0.1-0.6,0.2-0.9,0.2c-0.6,0-1.1-0.2-1.4-0.6
					c-0.3-0.4-0.4-1-0.4-1.8v-3.6h1v3.5c0,0.5,0.1,0.9,0.2,1.2s0.4,0.4,0.8,0.4c0.3,0,0.5-0.1,0.7-0.2c0.2-0.1,0.4-0.3,0.5-0.6v-4.2
					H87.4z"/>
				<path class="st1" d="M89.2,76.6h1v1.2h-1V76.6z M89.2,79.1h1V85h-1V79.1z"/>
				<path class="st1" d="M91.6,84.6l0.1-1.1c0.5,0.4,1,0.6,1.6,0.6c0.3,0,0.5-0.1,0.7-0.2s0.2-0.3,0.2-0.5c0-0.2,0-0.3-0.1-0.4
					s-0.2-0.2-0.4-0.3c-0.2-0.1-0.4-0.2-0.8-0.4c-0.4-0.2-0.7-0.4-0.9-0.7c-0.2-0.3-0.3-0.6-0.3-1c0-0.5,0.2-0.9,0.5-1.2
					S93,79,93.6,79c0.6,0,1.1,0.1,1.5,0.4l-0.1,1c-0.2-0.1-0.4-0.2-0.6-0.3c-0.2-0.1-0.4-0.1-0.7-0.1c-0.3,0-0.5,0.1-0.7,0.2
					s-0.2,0.3-0.2,0.5s0.1,0.4,0.2,0.5c0.1,0.1,0.4,0.3,0.8,0.4c0.6,0.3,1,0.5,1.2,0.8s0.3,0.6,0.3,1c0,0.6-0.2,1-0.5,1.3
					c-0.3,0.3-0.8,0.5-1.4,0.5C92.7,85.1,92.1,85,91.6,84.6z"/>
				<path class="st1" d="M96.6,76.6h1v1.2h-1V76.6z M96.6,79.1h1V85h-1V79.1z"/>
				<path class="st1" d="M103.2,79.7c0.3,0.5,0.5,1.1,0.5,1.9V85h-1v-3.2c0-0.6-0.1-1.1-0.3-1.4s-0.5-0.5-0.8-0.5
					c-0.3,0-0.5,0.1-0.7,0.2c-0.2,0.1-0.4,0.4-0.6,0.6V85h-1v-5.9h0.9l0.1,0.7c0.2-0.3,0.4-0.5,0.7-0.6c0.3-0.2,0.6-0.2,0.9-0.2
					C102.4,79,102.9,79.2,103.2,79.7z"/>
			</g>
			<g>
			</g>
			<g class="st0">
				<path class="st1" d="M106.3,84.7c-0.4-0.3-0.7-0.7-0.9-1.1s-0.3-1-0.3-1.6c0-0.6,0.1-1.1,0.3-1.5s0.5-0.8,0.9-1.1
					c0.4-0.3,0.8-0.4,1.3-0.4c0.7,0,1.2,0.2,1.6,0.7c0.4,0.4,0.6,1,0.6,1.8c0,0.1,0,0.3,0,0.6h-3.6c0,0.7,0.2,1.2,0.5,1.6
					c0.3,0.4,0.7,0.5,1.3,0.5c0.2,0,0.5,0,0.8-0.1c0.3-0.1,0.5-0.1,0.7-0.3l0.1,0.9c-0.4,0.2-1,0.4-1.7,0.4
					C107.2,85.1,106.7,85,106.3,84.7z M108.7,81.3c0-0.4-0.1-0.7-0.3-1s-0.5-0.4-0.8-0.4c-0.4,0-0.7,0.1-0.9,0.3
					c-0.2,0.2-0.4,0.6-0.5,1H108.7z"/>
			</g>
		</g>
	</g>
</g>
</svg>
