<?xml version="1.0" encoding="utf-8"?>
<!-- Generator: Adobe Illustrator 22.1.0, SVG Export Plug-In . SVG Version: 6.00 Build 0)  -->
<svg version="1.1" id="Layer_1" xmlns="http://www.w3.org/2000/svg" xmlns:xlink="http://www.w3.org/1999/xlink" x="0px" y="0px"
	 viewBox="0 0 100 100" style="enable-background:new 0 0 100 100;" xml:space="preserve">
<style type="text/css">
	.st0{fill:#111111;}
</style>
<path class="st0" d="M46.5,55.9c-0.9-0.4-2.2-0.5-3.8-0.5H42v12.3h0.7c2,0,3.5-0.3,4.6-0.9c1.9-1.1,2.8-2.8,2.8-5.2
	c0-1.3-0.3-2.4-1-3.5C48.4,57,47.6,56.3,46.5,55.9z M50,12.2c-20.9,0-37.8,16.9-37.8,37.8S29.1,87.8,50,87.8
	c20.9,0,37.8-16.9,37.8-37.8S70.9,12.2,50,12.2z M35.4,61.2c-0.6,1-1.4,1.7-2.4,2.1c-0.8,0.3-2.1,0.5-4,0.5h-1.2v7.1h-3.5V52.1h4.7
	c1.4,0,2.4,0.1,3,0.2c1,0.2,1.8,0.7,2.6,1.3c1.2,1.1,1.7,2.5,1.7,4.2C36.3,59,36,60.1,35.4,61.2z M52,66.9c-1,1.6-2.4,2.7-4.1,3.3
	c-1.4,0.5-3,0.7-5.1,0.7h-4.3V52.1h4.3c3.4,0,6,0.7,7.7,2.2c0.9,0.8,1.7,1.9,2.3,3.2c0.6,1.3,0.8,2.7,0.8,4
	C53.6,63.5,53.1,65.3,52,66.9z M65.7,55.4h-6.1V60h5.8v3.2h-5.8v7.7h-3.5V52.1h9.6V55.4z M50.9,17.2c17.7,0.5,31.9,15,31.9,32.8
	c0,0.1,0,0.2,0,0.2C66,47.7,52.9,34.2,50.9,17.2z M32,55.9c-0.6-0.4-1.6-0.6-2.9-0.6h-1.2v5.1h1.1c2.6,0,3.9-0.9,3.9-2.7
	C32.9,56.9,32.6,56.3,32,55.9z"/>
</svg>
