<?xml version="1.0" encoding="utf-8"?>
<!-- Generator: Adobe Illustrator 22.1.0, SVG Export Plug-In . SVG Version: 6.00 Build 0)  -->
<svg version="1.1" id="Capa_1" xmlns="http://www.w3.org/2000/svg" xmlns:xlink="http://www.w3.org/1999/xlink" x="0px" y="0px"
	 viewBox="0 0 362.1 362.1" style="enable-background:new 0 0 362.1 362.1;" xml:space="preserve">
<style type="text/css">
	.st0{fill:#0F0F0F;}
</style>
<path class="st0" d="M39.7,136.5l90.9,65.7c0,0-11.2-52.2-39.8-107.2C90.8,94.9,46.4,116.3,39.7,136.5z M43.6,277.3l87,82.5V211.1
	l-90.9-69.6C31.8,183,43.6,277.3,43.6,277.3z M248.4,68.3V11.9c0-7.4-6-12.7-13.4-11.8l-127.3,16c-7.4,0.9-13.4,7.7-13.4,15.2v58.9
	c0,0,38.7,72.4,48,136.4c9.3,64-8.4,135.5-8.4,135.5l168.3-49.7c0,0,39.6-57.2,14.3-134.7C291.4,100.3,248.4,68.3,248.4,68.3z
	 M204.4,56.3l-53.3,9.5c-0.9,0.2-1.7,0.2-2.5,0.2c-6.8,0-12.8-4.9-14.1-11.8c-1.4-7.8,3.8-15.2,11.6-16.6l53.3-9.5
	c7.8-1.4,15.2,3.8,16.6,11.6C217.4,47.4,212.2,54.9,204.4,56.3z"/>
</svg>
